<svg xmlns="http://www.w3.org/2000/svg" xmlns:xlink="http://www.w3.org/1999/xlink" width="500" zoomAndPan="magnify" viewBox="0 0 375 374.999991" height="500" preserveAspectRatio="xMidYMid meet" version="1.0"><defs><clipPath id="4cd9a6912a"><path d="M 118.125 99.039062 L 256.875 99.039062 L 256.875 237.789062 L 118.125 237.789062 Z M 118.125 99.039062 " clip-rule="nonzero"/></clipPath><clipPath id="604036b1b8"><path d="M 118.125 142 L 169 142 L 169 237.789062 L 118.125 237.789062 Z M 118.125 142 " clip-rule="nonzero"/></clipPath><clipPath id="afbc9bac68"><path d="M 201 99.039062 L 256.875 99.039062 L 256.875 191 L 201 191 Z M 201 99.039062 " clip-rule="nonzero"/></clipPath></defs><path fill="#ffffff" d="M 121.035156 101.988281 L 253.964844 234.910156 " fill-opacity="1" fill-rule="nonzero"/><g clip-path="url(#4cd9a6912a)"><path fill="#ffffff" d="M 253.964844 237.554688 C 253.289062 237.554688 252.613281 237.292969 252.097656 236.777344 L 119.160156 103.859375 C 118.128906 102.828125 118.128906 101.152344 119.160156 100.117188 C 120.195312 99.085938 121.871094 99.085938 122.902344 100.117188 L 255.839844 233.035156 C 256.871094 234.070312 256.871094 235.746094 255.839844 236.777344 C 255.320312 237.292969 254.644531 237.554688 253.964844 237.554688 Z M 253.964844 237.554688 " fill-opacity="1" fill-rule="nonzero"/></g><g clip-path="url(#604036b1b8)"><path fill="#ffffff" d="M 121.035156 237.554688 C 121.03125 237.554688 121.03125 237.554688 121.035156 237.554688 C 119.570312 237.554688 118.386719 236.367188 118.386719 234.90625 L 118.414062 146.078125 C 118.414062 144.550781 119.328125 143.1875 120.742188 142.601562 C 122.152344 142.011719 123.761719 142.335938 124.84375 143.414062 L 167.867188 186.078125 C 168.90625 187.105469 168.914062 188.78125 167.882812 189.816406 C 166.855469 190.855469 165.179688 190.863281 164.140625 189.832031 L 123.703125 149.738281 L 123.679688 234.90625 C 123.679688 236.371094 122.492188 237.554688 121.035156 237.554688 Z M 121.109375 147.164062 C 121.109375 147.167969 121.113281 147.171875 121.117188 147.171875 Z M 121.109375 147.164062 " fill-opacity="1" fill-rule="nonzero"/></g><g clip-path="url(#afbc9bac68)"><path fill="#ffffff" d="M 253.964844 190.601562 C 252.503906 190.601562 251.320312 189.417969 251.320312 187.957031 L 251.292969 106.757812 L 205.566406 152.140625 C 204.53125 153.171875 202.855469 153.164062 201.824219 152.128906 C 200.796875 151.09375 200.800781 149.417969 201.839844 148.390625 L 250.164062 100.425781 C 251.238281 99.351562 252.847656 99.03125 254.257812 99.617188 C 255.671875 100.199219 256.585938 101.566406 256.585938 103.09375 L 256.613281 187.957031 C 256.613281 189.417969 255.429688 190.601562 253.964844 190.601562 Z M 253.898438 104.171875 L 253.890625 104.179688 C 253.894531 104.179688 253.894531 104.175781 253.898438 104.171875 Z M 253.898438 104.171875 " fill-opacity="1" fill-rule="nonzero"/></g></svg>