<svg xmlns="http://www.w3.org/2000/svg" xmlns:xlink="http://www.w3.org/1999/xlink" width="500" zoomAndPan="magnify" viewBox="0 0 375 374.999991" height="500" preserveAspectRatio="xMidYMid meet" version="1.0"><defs><g/><clipPath id="575af546d0"><path d="M 118.125 99.039062 L 256.875 99.039062 L 256.875 237.789062 L 118.125 237.789062 Z M 118.125 99.039062 " clip-rule="nonzero"/></clipPath><clipPath id="f47dd948fa"><path d="M 118.125 142 L 169 142 L 169 237.789062 L 118.125 237.789062 Z M 118.125 142 " clip-rule="nonzero"/></clipPath><clipPath id="157ba33246"><path d="M 201 99.039062 L 256.875 99.039062 L 256.875 191 L 201 191 Z M 201 99.039062 " clip-rule="nonzero"/></clipPath></defs><path fill="#ffffff" d="M 121.035156 101.988281 L 253.964844 234.910156 " fill-opacity="1" fill-rule="nonzero"/><g clip-path="url(#575af546d0)"><path fill="#ffffff" d="M 253.964844 237.554688 C 253.289062 237.554688 252.613281 237.292969 252.097656 236.777344 L 119.160156 103.859375 C 118.128906 102.828125 118.128906 101.152344 119.160156 100.117188 C 120.195312 99.085938 121.871094 99.085938 122.902344 100.117188 L 255.839844 233.035156 C 256.871094 234.070312 256.871094 235.746094 255.839844 236.777344 C 255.320312 237.292969 254.644531 237.554688 253.964844 237.554688 Z M 253.964844 237.554688 " fill-opacity="1" fill-rule="nonzero"/></g><g clip-path="url(#f47dd948fa)"><path fill="#ffffff" d="M 121.035156 237.554688 C 121.03125 237.554688 121.03125 237.554688 121.035156 237.554688 C 119.570312 237.554688 118.386719 236.367188 118.386719 234.90625 L 118.414062 146.078125 C 118.414062 144.550781 119.328125 143.1875 120.742188 142.601562 C 122.152344 142.011719 123.761719 142.335938 124.84375 143.414062 L 167.867188 186.078125 C 168.90625 187.105469 168.914062 188.78125 167.882812 189.816406 C 166.855469 190.855469 165.179688 190.863281 164.140625 189.832031 L 123.703125 149.738281 L 123.679688 234.90625 C 123.679688 236.371094 122.492188 237.554688 121.035156 237.554688 Z M 121.109375 147.164062 C 121.109375 147.167969 121.113281 147.171875 121.117188 147.171875 Z M 121.109375 147.164062 " fill-opacity="1" fill-rule="nonzero"/></g><g clip-path="url(#157ba33246)"><path fill="#ffffff" d="M 253.964844 190.601562 C 252.503906 190.601562 251.320312 189.417969 251.320312 187.957031 L 251.292969 106.757812 L 205.566406 152.140625 C 204.53125 153.171875 202.855469 153.164062 201.824219 152.128906 C 200.796875 151.09375 200.800781 149.417969 201.839844 148.390625 L 250.164062 100.425781 C 251.238281 99.351562 252.847656 99.03125 254.257812 99.617188 C 255.671875 100.199219 256.585938 101.566406 256.585938 103.09375 L 256.613281 187.957031 C 256.613281 189.417969 255.429688 190.601562 253.964844 190.601562 Z M 253.898438 104.171875 L 253.890625 104.179688 C 253.894531 104.179688 253.894531 104.175781 253.898438 104.171875 Z M 253.898438 104.171875 " fill-opacity="1" fill-rule="nonzero"/></g><g fill="#fffbfa" fill-opacity="1"><g transform="translate(125.967155, 261.54845)"><g><path d="M 3.5 0 L 1.328125 0 C 1.140625 0 1.046875 -0.09375 1.046875 -0.28125 L 1.046875 -10.265625 C 1.046875 -10.429688 1.082031 -10.554688 1.15625 -10.640625 C 1.226562 -10.734375 1.316406 -10.769531 1.421875 -10.75 C 1.523438 -10.726562 1.628906 -10.644531 1.734375 -10.5 L 6.34375 -4.703125 L 10.984375 -10.5 C 11.085938 -10.632812 11.191406 -10.710938 11.296875 -10.734375 C 11.398438 -10.753906 11.484375 -10.722656 11.546875 -10.640625 C 11.617188 -10.554688 11.65625 -10.429688 11.65625 -10.265625 L 11.65625 -0.28125 C 11.65625 -0.09375 11.5625 0 11.375 0 L 9.21875 0 C 9.03125 0 8.9375 -0.09375 8.9375 -0.28125 L 8.9375 -4.078125 L 6.53125 -1.28125 C 6.40625 -1.125 6.273438 -1.125 6.140625 -1.28125 L 3.78125 -4.046875 L 3.78125 -0.28125 C 3.78125 -0.09375 3.6875 0 3.5 0 Z M 3.5 0 "/></g></g></g><g fill="#fffbfa" fill-opacity="1"><g transform="translate(149.875163, 261.54845)"><g><path d="M 5.6875 0.28125 C 5.175781 0.28125 4.6875 0.234375 4.21875 0.140625 C 3.757812 0.046875 3.328125 -0.09375 2.921875 -0.28125 C 2.523438 -0.476562 2.175781 -0.726562 1.875 -1.03125 C 1.582031 -1.332031 1.351562 -1.691406 1.1875 -2.109375 C 1.019531 -2.523438 0.9375 -3.003906 0.9375 -3.546875 L 0.9375 -10.21875 C 0.9375 -10.40625 1.03125 -10.5 1.21875 -10.5 L 3.53125 -10.5 C 3.71875 -10.5 3.8125 -10.40625 3.8125 -10.21875 L 3.8125 -4.28125 C 3.8125 -3.5625 3.96875 -3.039062 4.28125 -2.71875 C 4.601562 -2.40625 5.070312 -2.25 5.6875 -2.25 C 6.300781 -2.25 6.765625 -2.40625 7.078125 -2.71875 C 7.398438 -3.039062 7.5625 -3.5625 7.5625 -4.28125 L 7.5625 -10.21875 C 7.5625 -10.40625 7.65625 -10.5 7.84375 -10.5 L 10.15625 -10.5 C 10.34375 -10.5 10.4375 -10.40625 10.4375 -10.21875 L 10.4375 -3.546875 C 10.4375 -2.859375 10.3125 -2.273438 10.0625 -1.796875 C 9.8125 -1.316406 9.46875 -0.921875 9.03125 -0.609375 C 8.59375 -0.304688 8.082031 -0.0820312 7.5 0.0625 C 6.925781 0.207031 6.320312 0.28125 5.6875 0.28125 Z M 5.6875 0.28125 "/></g></g></g><g fill="#fffbfa" fill-opacity="1"><g transform="translate(172.437243, 261.54845)"><g><path d="M 7.828125 -3.9375 L 9.796875 -0.328125 C 9.835938 -0.234375 9.835938 -0.15625 9.796875 -0.09375 C 9.765625 -0.03125 9.695312 0 9.59375 0 L 7.046875 0 C 6.898438 0 6.789062 -0.0703125 6.71875 -0.21875 L 5.03125 -3.578125 L 3.84375 -3.578125 L 3.84375 -0.28125 C 3.84375 -0.09375 3.75 0 3.5625 0 L 1.3125 0 C 1.132812 0 1.046875 -0.09375 1.046875 -0.28125 L 1.046875 -10.21875 C 1.046875 -10.40625 1.132812 -10.5 1.3125 -10.5 L 5.6875 -10.5 C 6.269531 -10.5 6.773438 -10.4375 7.203125 -10.3125 C 7.640625 -10.195312 8 -10.035156 8.28125 -9.828125 C 8.570312 -9.617188 8.800781 -9.367188 8.96875 -9.078125 C 9.144531 -8.796875 9.269531 -8.488281 9.34375 -8.15625 C 9.414062 -7.820312 9.453125 -7.476562 9.453125 -7.125 C 9.453125 -6.363281 9.304688 -5.707031 9.015625 -5.15625 C 8.734375 -4.613281 8.335938 -4.207031 7.828125 -3.9375 Z M 5.203125 -8.125 L 3.84375 -8.125 L 3.84375 -5.96875 L 5.203125 -5.96875 C 5.273438 -5.96875 5.367188 -5.96875 5.484375 -5.96875 C 5.609375 -5.976562 5.738281 -6 5.875 -6.03125 C 6.007812 -6.0625 6.132812 -6.117188 6.25 -6.203125 C 6.363281 -6.285156 6.457031 -6.394531 6.53125 -6.53125 C 6.613281 -6.675781 6.65625 -6.863281 6.65625 -7.09375 C 6.65625 -7.351562 6.601562 -7.550781 6.5 -7.6875 C 6.40625 -7.832031 6.28125 -7.9375 6.125 -8 C 5.976562 -8.0625 5.820312 -8.097656 5.65625 -8.109375 C 5.488281 -8.117188 5.335938 -8.125 5.203125 -8.125 Z M 5.203125 -8.125 "/></g></g></g><g fill="#fffbfa" fill-opacity="1"><g transform="translate(194.022326, 261.54845)"><g><path d="M 3.5625 0 L 1.3125 0 C 1.132812 0 1.046875 -0.09375 1.046875 -0.28125 L 1.046875 -10.21875 C 1.046875 -10.40625 1.132812 -10.5 1.3125 -10.5 L 5.6875 -10.5 C 6.269531 -10.5 6.773438 -10.4375 7.203125 -10.3125 C 7.640625 -10.195312 8 -10.035156 8.28125 -9.828125 C 8.570312 -9.617188 8.800781 -9.367188 8.96875 -9.078125 C 9.144531 -8.796875 9.269531 -8.488281 9.34375 -8.15625 C 9.414062 -7.820312 9.453125 -7.476562 9.453125 -7.125 C 9.453125 -6.394531 9.320312 -5.765625 9.0625 -5.234375 C 8.800781 -4.703125 8.429688 -4.289062 7.953125 -4 C 7.472656 -3.71875 6.898438 -3.578125 6.234375 -3.578125 L 3.84375 -3.578125 L 3.84375 -0.28125 C 3.84375 -0.09375 3.75 0 3.5625 0 Z M 3.84375 -8.125 L 3.84375 -5.96875 L 5.203125 -5.96875 C 5.273438 -5.96875 5.367188 -5.96875 5.484375 -5.96875 C 5.609375 -5.976562 5.738281 -6 5.875 -6.03125 C 6.007812 -6.0625 6.132812 -6.117188 6.25 -6.203125 C 6.363281 -6.285156 6.457031 -6.394531 6.53125 -6.53125 C 6.613281 -6.675781 6.65625 -6.863281 6.65625 -7.09375 C 6.65625 -7.351562 6.601562 -7.550781 6.5 -7.6875 C 6.40625 -7.832031 6.28125 -7.9375 6.125 -8 C 5.976562 -8.0625 5.820312 -8.097656 5.65625 -8.109375 C 5.488281 -8.117188 5.335938 -8.125 5.203125 -8.125 Z M 3.84375 -8.125 "/></g></g></g><g fill="#fffbfa" fill-opacity="1"><g transform="translate(215.170159, 261.54845)"><g><path d="M 3.5625 0 L 1.3125 0 C 1.132812 0 1.046875 -0.09375 1.046875 -0.28125 L 1.046875 -10.21875 C 1.046875 -10.40625 1.132812 -10.5 1.3125 -10.5 L 3.5625 -10.5 C 3.738281 -10.5 3.828125 -10.40625 3.828125 -10.21875 L 3.828125 -5.921875 L 7.5 -5.921875 L 7.5 -10.21875 C 7.5 -10.40625 7.59375 -10.5 7.78125 -10.5 L 10.015625 -10.5 C 10.203125 -10.5 10.296875 -10.40625 10.296875 -10.21875 L 10.296875 -0.28125 C 10.296875 -0.09375 10.203125 0 10.015625 0 L 7.78125 0 C 7.59375 0 7.5 -0.09375 7.5 -0.28125 L 7.5 -3.546875 L 3.828125 -3.546875 L 3.828125 -0.28125 C 3.828125 -0.09375 3.738281 0 3.5625 0 Z M 3.5625 0 "/></g></g></g><g fill="#fffbfa" fill-opacity="1"><g transform="translate(237.718578, 261.54845)"><g><path d="M 6.75 0 L 4.5 0 C 4.3125 0 4.21875 -0.09375 4.21875 -0.28125 L 4.21875 -4.015625 L 0.203125 -10.171875 C 0.140625 -10.253906 0.125 -10.328125 0.15625 -10.390625 C 0.195312 -10.460938 0.269531 -10.5 0.375 -10.5 L 3.09375 -10.5 C 3.25 -10.5 3.363281 -10.429688 3.4375 -10.296875 L 5.640625 -6.53125 L 7.875 -10.296875 C 7.945312 -10.429688 8.0625 -10.5 8.21875 -10.5 L 10.9375 -10.5 C 11.050781 -10.5 11.125 -10.460938 11.15625 -10.390625 C 11.195312 -10.328125 11.179688 -10.253906 11.109375 -10.171875 L 7.03125 -4.015625 L 7.03125 -0.28125 C 7.03125 -0.09375 6.9375 0 6.75 0 Z M 6.75 0 "/></g></g></g></svg>